<svg xmlns="http://www.w3.org/2000/svg">
  <!-- Lucide v1.18.0 icon paths (ISC). Kept as a same-origin sprite so the
       static Amethyst runtime can use a real icon library without another
       customer-facing network dependency. -->
  <symbol id="video" viewBox="0 0 24 24" fill="none" stroke="currentColor" stroke-width="2" stroke-linecap="round" stroke-linejoin="round">
    <path d="m16 13 5.223 3.482a.5.5 0 0 0 .777-.416V7.87a.5.5 0 0 0-.752-.432L16 10.5" />
    <rect x="2" y="6" width="14" height="12" rx="2" />
  </symbol>
  <symbol id="camera" viewBox="0 0 24 24" fill="none" stroke="currentColor" stroke-width="2" stroke-linecap="round" stroke-linejoin="round">
    <path d="M13.997 4a2 2 0 0 1 1.76 1.05l.486.9A2 2 0 0 0 18.003 7H20a2 2 0 0 1 2 2v9a2 2 0 0 1-2 2H4a2 2 0 0 1-2-2V9a2 2 0 0 1 2-2h1.997a2 2 0 0 0 1.759-1.048l.489-.904A2 2 0 0 1 10.004 4z" />
    <circle cx="12" cy="13" r="3" />
  </symbol>
  <symbol id="shopping-bag" viewBox="0 0 24 24" fill="none" stroke="currentColor" stroke-width="2" stroke-linecap="round" stroke-linejoin="round">
    <path d="M16 10a4 4 0 0 1-8 0" />
    <path d="M3.103 6.034h17.794" />
    <path d="M3.4 5.467a2 2 0 0 0-.4 1.2V20a2 2 0 0 0 2 2h14a2 2 0 0 0 2-2V6.667a2 2 0 0 0-.4-1.2l-2-2.667A2 2 0 0 0 17 2H7a2 2 0 0 0-1.6.8z" />
  </symbol>
  <symbol id="gift" viewBox="0 0 24 24" fill="none" stroke="currentColor" stroke-width="2" stroke-linecap="round" stroke-linejoin="round">
    <path d="M12 7v14" />
    <path d="M20 11v8a2 2 0 0 1-2 2H6a2 2 0 0 1-2-2v-8" />
    <path d="M7.5 7a1 1 0 0 1 0-5A4.8 8 0 0 1 12 7a4.8 8 0 0 1 4.5-5 1 1 0 0 1 0 5" />
    <rect x="3" y="7" width="18" height="4" rx="1" />
  </symbol>
  <symbol id="calendar" viewBox="0 0 24 24" fill="none" stroke="currentColor" stroke-width="2" stroke-linecap="round" stroke-linejoin="round">
    <path d="M8 2v4" />
    <path d="M16 2v4" />
    <rect width="18" height="18" x="3" y="4" rx="2" />
    <path d="M3 10h18" />
  </symbol>
  <symbol id="external-link" viewBox="0 0 24 24" fill="none" stroke="currentColor" stroke-width="2" stroke-linecap="round" stroke-linejoin="round">
    <path d="M15 3h6v6" />
    <path d="M10 14 21 3" />
    <path d="M18 13v6a2 2 0 0 1-2 2H5a2 2 0 0 1-2-2V8a2 2 0 0 1 2-2h6" />
  </symbol>
  <symbol id="play" viewBox="0 0 24 24" fill="none" stroke="currentColor" stroke-width="2" stroke-linecap="round" stroke-linejoin="round">
    <path d="M5 5a2 2 0 0 1 3.008-1.728l11.997 6.998a2 2 0 0 1 .003 3.458l-12 7A2 2 0 0 1 5 19z" />
  </symbol>
  <symbol id="sparkles" viewBox="0 0 24 24" fill="none" stroke="currentColor" stroke-width="2" stroke-linecap="round" stroke-linejoin="round">
    <path d="M11.017 2.814a1 1 0 0 1 1.966 0l1.051 5.558a2 2 0 0 0 1.594 1.594l5.558 1.051a1 1 0 0 1 0 1.966l-5.558 1.051a2 2 0 0 0-1.594 1.594l-1.051 5.558a1 1 0 0 1-1.966 0l-1.051-5.558a2 2 0 0 0-1.594-1.594l-5.558-1.051a1 1 0 0 1 0-1.966l5.558-1.051a2 2 0 0 0 1.594-1.594z" />
    <path d="M20 2v4" />
    <path d="M22 4h-4" />
    <circle cx="4" cy="20" r="2" />
  </symbol>
  <!-- Existing Sparkle Suite social-logo paths, moved into the same sprite so
       provider-aware card chrome stays consistent with the customer footer. -->
  <symbol id="tiktok" viewBox="0 0 24 24" fill="currentColor">
    <path d="M16.6 3c.4 2.4 1.9 4 4.2 4.3v3.4c-1.6 0-3-.4-4.2-1.3v6.2c0 3.4-2.5 5.7-5.8 5.7-3.1 0-5.5-2.1-5.5-5.1 0-3.2 2.5-5.3 5.8-5.3.4 0 .8 0 1.1.1v3.4c-.4-.1-.8-.2-1.2-.2-1.4 0-2.4.8-2.4 2s.9 2 2.2 2c1.4 0 2.3-.9 2.3-2.8V3h3.5Z" />
  </symbol>
  <symbol id="facebook" viewBox="0 0 24 24" fill="currentColor">
    <path d="M14.2 8.1V6.6c0-.7.5-.9.9-.9h2.3V2.2L14.2 2c-3.2 0-4.8 1.9-4.8 5.1v1H7v3.8h2.4V22h4.2V11.9h3.1l.5-3.8h-3Z" />
  </symbol>
  <symbol id="instagram" viewBox="0 0 24 24" fill="none" stroke="currentColor" stroke-width="2">
    <rect x="4" y="4" width="16" height="16" rx="4.5" />
    <circle cx="12" cy="12" r="3.4" />
    <circle cx="17" cy="7" r="1" fill="currentColor" stroke="none" />
  </symbol>
  <symbol id="youtube" viewBox="0 0 24 24" fill="currentColor">
    <path d="M21.6 7.2a3 3 0 0 0-2.1-2.1C17.7 4.6 12 4.6 12 4.6s-5.7 0-7.5.5a3 3 0 0 0-2.1 2.1A31 31 0 0 0 2 12a31 31 0 0 0 .4 4.8 3 3 0 0 0 2.1 2.1c1.8.5 7.5.5 7.5.5s5.7 0 7.5-.5a3 3 0 0 0 2.1-2.1A31 31 0 0 0 22 12a31 31 0 0 0-.4-4.8ZM10 15.4V8.6l5.9 3.4-5.9 3.4Z" />
  </symbol>
</svg>
